<svg width="32" height="32" viewBox="0 0 32 32" fill="none" xmlns="http://www.w3.org/2000/svg">
<mask id="mask0_198_1373" style="mask-type:alpha" maskUnits="userSpaceOnUse" x="0" y="2" width="32" height="28">
<path d="M11.4625 11.6214C11.4625 13.4623 10.0299 14.9546 8.26265 14.9546C6.49541 14.9546 5.06278 13.4623 5.06278 11.6214C5.06278 9.78057 6.49541 8.28825 8.26265 8.28825C10.0299 8.28825 11.4625 9.78057 11.4625 11.6214Z" fill="#B4DBFF"/>
<path fill-rule="evenodd" clip-rule="evenodd" d="M0.000732422 6.00019C0.000732422 4.15932 1.43337 2.66699 3.20061 2.66699H28.7996C30.5668 2.66699 31.9995 4.15932 31.9995 6.00019V25.9994C31.9995 27.8403 30.5669 29.3326 28.7996 29.3326H26.6874C26.6804 29.3326 26.6734 29.3326 26.6664 29.3326H3.92988C3.92386 29.3326 3.91783 29.3326 3.91181 29.3326H3.20061C1.43337 29.3326 0.000732422 27.8403 0.000732422 25.9994V6.00019ZM3.20061 5.16689H28.7996C29.2414 5.16689 29.5996 5.53997 29.5996 6.00019V16.3866L22.6474 9.33343L10.8198 21.3329L7.33568 17.7982L2.40064 22.805V6.00019C2.40064 5.53997 2.7588 5.16689 3.20061 5.16689Z" fill="#B4DBFF"/>
</mask>
<g mask="url(#mask0_198_1373)">
<rect x="0.000488281" y="-0.000488281" width="31.9987" height="31.9987" fill="#FFBF69"/>
</g>
</svg>
