<svg width="50" height="53" viewBox="0 0 50 53" fill="none" xmlns="http://www.w3.org/2000/svg">
<path d="M8.33333 53C6.01852 53 4.05093 52.1412 2.43056 50.4236C0.810185 48.706 0 46.6204 0 44.1667V26.5C0 25.3222 0.208333 24.1935 0.625 23.1139C1.04167 22.0343 1.64352 21.0773 2.43056 20.2431L19.0972 2.5764C19.8843 1.69307 20.7991 1.04235 21.8417 0.624236C22.8843 0.206125 23.937 -0.0019492 25 1.37591e-05C26.063 0.00197672 27.1046 0.211032 28.125 0.62718C29.1454 1.04333 30.0713 1.69307 30.9028 2.5764L32.9861 4.78473L11.1111 27.9722V41.2222H38.8889V27.9722L28.8889 17.3722L36.875 8.98057L47.5694 20.2431C48.3565 21.0773 48.9583 22.0343 49.375 23.1139C49.7917 24.1935 50 25.3222 50 26.5V44.1667C50 46.6204 49.1898 48.706 47.5694 50.4236C45.9491 52.1412 43.9815 53 41.6667 53H8.33333Z" fill="#F08B00"/>
</svg>
